<svg width="123" height="94" viewBox="0 0 123 94" fill="none" xmlns="http://www.w3.org/2000/svg">
<g clip-path="url(#clip0_101_3422)">
<path d="M75.8154 5.94764C75.8589 5.98327 75.9024 6.0189 75.9472 6.05561C77.129 7.02935 78.2717 8.1065 79.198 9.32877C79.2784 9.43143 79.3588 9.53402 79.4393 9.63653C83.255 14.5228 84.957 20.6584 84.2705 26.8174C83.9801 29.1328 83.3617 31.3355 82.4234 33.4684C82.3956 33.532 82.3679 33.5956 82.3393 33.6611C81.3746 35.8483 80.0287 37.8119 78.4209 39.5749C78.2692 39.7422 78.1211 39.912 77.9738 40.0832C77.504 40.621 76.9916 41.1088 76.4447 41.5674C76.4021 41.6031 76.3595 41.6389 76.3157 41.6758C75.1702 42.6341 73.9747 43.5129 72.6687 44.2408C72.604 44.2769 72.5394 44.313 72.4728 44.3501C69.7496 45.8533 66.794 46.804 63.7006 47.1502C63.6104 47.1613 63.6104 47.1613 63.5184 47.1726C62.7544 47.2561 61.9853 47.248 61.2177 47.2484C61.1424 47.2485 61.0671 47.2485 60.9896 47.2486C59.7795 47.2472 58.6027 47.1953 57.4073 46.9929C57.3274 46.9798 57.2475 46.9667 57.1652 46.9533C52.7556 46.2116 48.7408 44.1731 45.4499 41.1742C45.3139 41.053 45.1779 40.9317 45.0418 40.8105C44.5114 40.3326 44.0215 39.8334 43.5619 39.2871C43.526 39.2444 43.4901 39.2017 43.4531 39.1578C40.543 35.6826 38.6889 31.5957 38.0552 27.0993C38.046 27.0357 38.0368 26.9721 38.0273 26.9065C37.7612 24.98 37.7746 22.8897 38.0552 20.9661C38.0653 20.8959 38.0755 20.8256 38.0859 20.7533C38.6818 16.7664 40.2228 12.8697 42.7752 9.72192C42.8323 9.64975 42.8894 9.57758 42.9482 9.50323C43.9838 8.20979 45.1583 6.95871 46.4726 5.94764C46.5738 5.86783 46.675 5.78796 46.7762 5.70807C52.7357 1.03793 60.5332 -0.356533 75.8154 5.94764ZM47.9672 7.52026C47.8913 7.57996 47.8153 7.63966 47.7371 7.70117C47.1445 8.18289 46.6009 8.71219 46.0596 9.25013C45.987 9.32197 45.9144 9.39381 45.8396 9.46783C44.6339 10.6785 43.6035 12.0808 42.7752 13.5748C42.7388 13.6402 42.7024 13.7055 42.6649 13.7728C39.9915 18.6172 39.2358 24.4075 40.7769 29.7479C41.5294 32.2407 42.6408 34.5225 44.1912 36.6136C44.227 36.662 44.2628 36.7103 44.2997 36.7601C44.8675 37.5201 45.4993 38.2119 46.1579 38.8939C46.2287 38.9679 46.2995 39.0419 46.3724 39.1181C46.8231 39.5801 47.3037 39.9881 47.8099 40.3879C47.8942 40.4565 47.9784 40.5252 48.0625 40.594C51.095 43.0528 54.8737 44.5819 58.7446 45.0271C58.7987 45.0344 58.8527 45.0417 58.9084 45.0492C59.6269 45.1367 60.3525 45.1249 61.0751 45.1254C61.1831 45.1255 61.1831 45.1255 61.2932 45.1256C62.4258 45.1242 63.5286 45.0771 64.6446 44.8699C64.7535 44.8502 64.7535 44.8502 64.8645 44.8302C66.7572 44.4797 68.5727 43.8907 70.3087 43.0614C70.3736 43.0304 70.4385 42.9994 70.5055 42.9674C71.9284 42.2771 73.2538 41.3871 74.478 40.3879C74.5419 40.3361 74.5419 40.3361 74.607 40.2832C75.6863 39.4012 76.6958 38.4275 77.546 37.3213C77.6239 37.2239 77.7019 37.1265 77.7799 37.0292C78.4579 36.1746 79.0416 35.2749 79.5914 34.3333C79.6246 34.2766 79.6579 34.2199 79.6921 34.1615C82.3928 29.4906 82.9198 23.7071 81.5778 18.5373C80.8127 15.7089 79.4612 13.1005 77.6247 10.8227C77.5652 10.7471 77.5057 10.6715 77.4443 10.5936C76.4637 9.38749 75.319 8.20801 74.0551 7.29888C73.9227 7.20234 73.7936 7.10226 73.6646 7.00117C67.6539 2.35264 59.1677 1.68629 47.9672 7.52026Z" fill="#D1B54D"/>
<path d="M56.7031 57.8438C58.079 57.8438 59.4549 57.8438 60.8725 57.8438C61.5898 59.75 62.3053 61.6567 63.0063 63.5691C63.4925 64.8952 63.9818 66.2201 64.4757 67.5434C64.775 68.3456 65.0729 69.1484 65.3694 69.9517C65.4398 70.1422 65.5102 70.3327 65.5806 70.5232C65.6834 70.8016 65.7862 71.0799 65.8887 71.3584C66.2117 72.2357 66.5369 73.1118 66.8825 73.9806C66.9076 74.0439 66.9327 74.1072 66.9585 74.1725C67.3341 75.1402 67.3341 75.1402 68.1098 75.7716C68.4591 75.7716 68.643 75.6048 68.8965 75.3784C69.4928 74.5426 69.8415 73.5533 70.2166 72.6061C70.283 72.4403 70.3494 72.2746 70.4158 72.1089C70.5944 71.6633 70.7719 71.2173 70.9493 70.7712C71.135 70.3046 71.3217 69.8383 71.5083 69.3721C71.8187 68.5962 72.1285 67.8201 72.438 67.0438C72.9005 65.8836 73.3644 64.724 73.8286 63.5644C73.8652 63.4729 73.9019 63.3813 73.9397 63.2869C73.976 63.1962 74.0123 63.1056 74.0497 63.0122C74.0856 62.9223 74.1216 62.8324 74.1587 62.7399C74.2302 62.5611 74.3018 62.3824 74.3733 62.2037C74.6161 61.5973 74.8585 60.9908 75.1009 60.3843C75.1964 60.1454 75.2919 59.9064 75.3875 59.6674C75.4474 59.5175 75.5073 59.3676 75.5671 59.2177C75.6484 59.0142 75.7297 58.8107 75.8111 58.6072C75.8349 58.5474 75.8588 58.4876 75.8833 58.4261C76.0463 58.0189 76.0463 58.0189 76.1339 57.8438C77.4578 57.8438 78.7818 57.8438 80.1459 57.8438C80.1459 65.3168 80.1459 72.7899 80.1459 80.4894C78.8219 80.4894 77.498 80.4894 76.1339 80.4894C76.1079 74.21 76.082 67.9305 76.0552 61.4608C74.2707 65.9188 74.2707 65.9188 72.4979 70.3815C72.2593 70.9843 72.02 71.5869 71.7805 72.1894C71.7188 72.3447 71.6571 72.4999 71.5954 72.6552C71.5752 72.7062 71.5549 72.7572 71.534 72.8097C71.4933 72.9123 71.4525 73.0149 71.4118 73.1174C71.3136 73.3644 71.2155 73.6113 71.1172 73.8582C70.7287 74.8345 70.3408 75.8106 69.9739 76.7952C69.5817 77.8391 69.1352 78.8361 68.4245 79.7031C68.3741 79.7701 68.3237 79.8371 68.2718 79.9061C67.9704 80.2599 67.5787 80.5169 67.1191 80.6089C66.5564 80.6323 66.1661 80.4646 65.7357 80.1138C64.3329 78.811 63.6729 76.7812 63.0358 75.0295C62.9726 74.8577 62.9094 74.6859 62.846 74.5141C62.708 74.1398 62.5705 73.7654 62.4331 73.3909C62.1968 72.747 61.9581 72.1041 61.7191 71.4613C61.6978 71.4041 61.6765 71.3469 61.6546 71.288C61.5678 71.0544 61.4809 70.8209 61.394 70.5874C61.2519 70.2053 61.1099 69.8232 60.968 69.441C60.1259 67.1731 59.2794 64.9069 58.4338 62.6402C58.4078 68.5305 58.3819 74.4207 58.3551 80.4894C57.81 80.4894 57.2648 80.4894 56.7031 80.4894C56.7031 73.0163 56.7031 65.5433 56.7031 57.8438Z" fill="#004A25"/>
<path d="M19.8148 60.4681C21.7919 62.2991 23.1287 64.9545 23.2747 67.6721C23.2792 67.8439 23.2813 68.0156 23.2823 68.1875C23.2827 68.2512 23.2832 68.3149 23.2836 68.3806C23.2844 68.5154 23.2849 68.6502 23.2852 68.7851C23.2859 68.9859 23.2884 69.1867 23.2909 69.3875C23.2986 70.5724 23.1766 71.7437 22.814 72.877C22.7937 72.9418 22.7734 73.0066 22.7526 73.0734C22.2892 74.5139 21.5844 75.8038 20.5916 76.9511C20.5387 77.0144 20.4857 77.0778 20.4312 77.1431C18.9377 78.8775 16.8333 79.9997 14.6129 80.4895C14.5264 80.5088 14.5264 80.5088 14.4382 80.5285C12.6891 80.8986 10.6921 80.8787 8.94889 80.4895C8.88962 80.4764 8.83035 80.4633 8.76928 80.4499C7.0727 80.0602 5.46586 79.2735 4.1502 78.1306C4.0849 78.0748 4.01959 78.0191 3.95231 77.9616C1.685 75.9804 0.472712 73.0941 0.248062 70.1234C0.0637952 67.0464 0.728682 63.8022 2.80121 61.4267C2.90903 61.3061 3.01801 61.1867 3.12753 61.0677C3.18969 60.9991 3.25186 60.9304 3.3159 60.8597C7.52128 56.4332 15.3592 56.5765 19.8148 60.4681ZM8.94889 59.4164C8.8775 59.4524 8.80611 59.4884 8.73256 59.5255C6.89955 60.5107 5.49361 62.5837 4.88283 64.5436C4.20964 66.8504 3.97499 69.5634 4.54354 71.9187C4.56172 71.9964 4.57989 72.074 4.59862 72.154C5.21127 74.7209 6.27744 77.3045 8.61112 78.763C10.1041 79.6484 11.8303 79.814 13.4971 79.3911C14.5641 79.0673 15.3921 78.5079 16.1863 77.7374C16.2393 77.6902 16.2923 77.6429 16.347 77.5943C18.1785 75.9061 19.1153 72.7506 19.2543 70.3461C19.2687 69.9349 19.2736 69.524 19.2739 69.1126C19.274 69.0552 19.274 68.9978 19.2741 68.9386C19.2699 66.0399 18.5664 63.4263 16.7369 61.1463C16.6635 61.0533 16.6635 61.0533 16.5885 60.9583C15.6179 59.795 14.1631 58.9431 12.6462 58.7874C11.3505 58.6982 10.1126 58.7954 8.94889 59.4164Z" fill="#004A25"/>
<path d="M111.849 57.4502C111.901 57.4502 111.953 57.4502 112.007 57.4502C113.234 60.2232 114.458 62.9979 115.669 65.7781C116.163 66.9125 116.66 68.0457 117.158 69.1785C117.217 69.3127 117.276 69.4469 117.335 69.5811C117.364 69.6465 117.392 69.7119 117.422 69.7793C117.711 70.4374 117.999 71.0959 118.287 71.7544C118.619 72.5131 118.952 73.2714 119.285 74.0295C119.799 75.1993 120.313 76.3693 120.825 77.5402C120.881 77.6686 120.937 77.7969 120.993 77.9253C121.072 78.1049 121.151 78.2846 121.229 78.4643C121.251 78.5142 121.273 78.5641 121.295 78.6156C121.566 79.2361 121.818 79.8628 122.076 80.489C120.622 80.489 119.169 80.489 117.671 80.489C117.281 79.5808 116.892 78.6726 116.491 77.7369C116.144 77.8758 115.874 78.0373 115.571 78.248C112.974 80.0119 109.73 81.0354 106.567 80.6094C105.695 80.4351 104.933 80.0078 104.376 79.3095C103.785 78.3866 103.729 77.2115 103.915 76.1565C104.144 75.1138 104.569 74.1271 105.006 73.1569C105.13 72.8804 105.253 72.6032 105.376 72.3262C105.441 72.1792 105.506 72.0323 105.571 71.8854C105.906 71.1325 106.235 70.3768 106.563 69.6208C106.729 69.2396 106.894 68.8584 107.06 68.4772C107.109 68.3655 107.109 68.3655 107.158 68.2515C107.481 67.5093 107.804 66.7676 108.128 66.0259C108.155 65.9636 108.182 65.9013 108.21 65.8371C108.346 65.5252 108.482 65.2133 108.618 64.9014C108.784 64.5218 108.949 64.1421 109.115 63.7625C109.143 63.699 109.17 63.6355 109.199 63.5701C109.338 63.2517 109.476 62.9333 109.615 62.6149C109.875 62.0202 110.134 61.4255 110.394 60.831C110.515 60.5525 110.637 60.2739 110.759 59.9954C110.816 59.8635 110.874 59.7317 110.932 59.5999C111.244 58.8859 111.553 58.1711 111.849 57.4502ZM110.355 63.662C108.683 67.8886 108.683 67.8886 107.68 72.3114C107.673 72.3616 107.665 72.4118 107.658 72.4636C107.589 72.992 107.584 73.5211 107.583 74.0534C107.582 74.2116 107.579 74.3698 107.577 74.528C107.572 75.7847 107.786 76.8403 108.629 77.8008C109.174 78.3027 110.011 78.691 110.748 78.7591C110.826 78.7664 110.904 78.7737 110.984 78.7812C112.721 78.8615 114.393 78.0366 115.704 76.9506C115.811 76.821 115.916 76.6902 116.019 76.5575C115.201 74.6413 114.372 72.7296 113.54 70.8194C113.266 70.19 112.993 69.5602 112.72 68.9303C112.68 68.8382 112.64 68.7461 112.599 68.6513C112.52 68.4697 112.441 68.2881 112.363 68.1065C112.148 67.6095 111.932 67.1125 111.717 66.6156C111.696 66.5667 111.674 66.5179 111.653 66.4675C111.247 65.532 110.841 64.5969 110.433 63.662C110.408 63.662 110.382 63.662 110.355 63.662Z" fill="#004A25"/>
<path d="M29.9531 57.8438C35.6903 57.8438 41.4275 57.8438 47.3385 57.8438C46.6229 59.2743 46.6229 59.2743 46.2716 59.8734C45.9011 60.5136 45.5384 61.1577 45.1801 61.8048C44.8143 62.465 44.4463 63.1239 44.0739 63.7804C43.7032 64.4337 43.3368 65.0893 42.9725 65.7461C42.5674 66.4767 42.1586 67.2052 41.7464 67.9318C41.4177 68.512 41.0932 69.0945 40.7698 69.6777C40.3626 70.412 39.9521 71.1443 39.538 71.8748C39.0874 72.67 38.6411 73.4676 38.1948 74.2652C37.965 74.6757 37.7351 75.086 37.5052 75.4964C37.4143 75.6585 37.3234 75.8207 37.2326 75.9829C37.0398 76.3269 36.8471 76.6709 36.6543 77.0149C36.6049 77.1029 36.5556 77.191 36.5048 77.2817C36.4109 77.4491 36.3171 77.6165 36.2233 77.7839C35.9679 78.2396 35.7133 78.6959 35.4598 79.1527C36.5085 79.1643 37.5543 79.1323 38.6022 79.0944C38.9008 79.0836 39.1993 79.0731 39.4978 79.0627C40.1316 79.0405 40.7654 79.018 41.3992 78.9954C42.1345 78.9692 42.8699 78.9431 43.6053 78.9175C43.8971 78.9072 44.1889 78.8967 44.4807 78.8861C45.4341 78.8523 46.3845 78.8305 47.3385 78.8382C47.3385 79.3831 47.3385 79.928 47.3385 80.4894C41.6013 80.4894 35.8642 80.4894 29.9531 80.4894C30.0596 80.2234 30.1607 79.9911 30.2964 79.743C30.3332 79.6756 30.37 79.6082 30.4079 79.5387C30.4476 79.4665 30.4874 79.3942 30.5284 79.3198C30.5912 79.2052 30.5912 79.2052 30.6552 79.0884C30.9913 78.477 31.3338 77.8692 31.6784 77.2625C32.0114 76.6757 32.34 76.0865 32.6671 75.4964C33.0744 74.7621 33.4849 74.0297 33.8989 73.2993C34.3496 72.504 34.7959 71.7065 35.2422 70.9088C35.4719 70.4984 35.7019 70.088 35.9318 69.6777C36.0236 69.5139 36.1154 69.35 36.2072 69.1862C37.5838 66.729 37.5838 66.729 38.9605 64.2718C39.0059 64.1907 39.0514 64.1096 39.0982 64.026C39.1898 63.8625 39.2815 63.6989 39.3732 63.5353C39.6048 63.122 39.8362 62.7086 40.0674 62.295C40.6497 61.2534 41.2379 60.2154 41.8318 59.1805C40.2561 59.2185 38.6806 59.2625 37.1054 59.3184C37.0323 59.321 36.9593 59.3235 36.8841 59.3262C36.2099 59.35 35.5358 59.374 34.8617 59.3985C33.2244 59.458 31.5917 59.51 29.9531 59.495C29.9531 58.9501 29.9531 58.4052 29.9531 57.8438Z" fill="#004A25"/>
<path d="M68.4889 16.9117C68.8958 17.1151 69.0487 17.4317 69.1929 17.8531C69.4053 18.7496 69.2468 19.716 68.7998 20.514C68.2267 21.3758 67.5232 21.9679 66.5203 22.2485C66.156 22.3138 65.8052 22.3339 65.4356 22.3372C65.3429 22.3384 65.3429 22.3384 65.2484 22.3396C64.2593 22.3254 63.3472 22.019 62.4364 21.659C62.3364 21.6203 62.2364 21.5817 62.1364 21.5432C61.6896 21.3708 61.2442 21.1952 60.7989 21.0192C60.1409 20.761 59.4867 20.5237 58.803 20.342C58.744 20.3263 58.6849 20.3106 58.6241 20.2944C56.6326 19.7944 54.6532 20.1945 52.8931 21.1971C50.6943 22.5887 49.5871 24.7329 49.0071 27.201C48.9636 27.4294 48.9338 27.6542 48.9106 27.8856C48.8949 28.0381 48.8949 28.0381 48.879 28.1937C48.6567 30.7703 49.2712 33.5914 50.9019 35.6455C50.998 35.759 51.0947 35.872 51.192 35.9846C51.2392 36.0475 51.2865 36.1105 51.3351 36.1753C51.8909 36.8314 52.6666 37.3511 53.4733 37.6358C53.5243 37.6549 53.5753 37.6739 53.6279 37.6936C53.9753 37.8022 54.3114 37.7988 54.6739 37.7965C54.8228 37.7957 54.8228 37.7957 54.9746 37.795C55.0503 37.7944 55.126 37.7937 55.204 37.7931C55.2046 37.6898 55.2052 37.5865 55.2059 37.48C55.212 36.5037 55.2189 35.5274 55.2266 34.551C55.2305 34.0492 55.2342 33.5473 55.2372 33.0454C55.2401 32.5605 55.2437 32.0757 55.2479 31.5908C55.2493 31.4064 55.2505 31.222 55.2514 31.0375C55.2528 30.778 55.2551 30.5185 55.2576 30.259C55.2577 30.1838 55.2579 30.1085 55.2581 30.0309C55.2775 28.4335 55.2775 28.4335 55.8333 27.8856C56.3577 27.464 56.876 27.3976 57.5283 27.3776C57.8 27.4138 57.8 27.4138 58.6653 27.7283C58.6653 31.2832 58.6653 34.8381 58.6653 38.5008C50.7305 38.5008 50.7305 38.5008 47.9983 35.7827C46.183 33.9291 45.4287 31.3961 45.4297 28.847C45.4533 26.6976 46.0104 24.4517 47.4159 22.7746C47.4969 22.6761 47.4969 22.6761 47.5794 22.5756C49.322 20.5456 51.9481 19.462 54.5746 19.2362C57.0193 19.0745 59.2164 19.6302 61.4392 20.5766C64.0732 21.7801 64.0732 21.7801 66.8467 21.5165C67.4574 21.2038 67.8387 20.6367 68.0958 20.0118C68.3307 19.2025 68.1665 18.46 67.7793 17.7297C67.6832 17.5231 67.7198 17.4045 67.7907 17.1918C67.9899 16.9385 68.1634 16.8622 68.4889 16.9117Z" fill="#D1B54D"/>
<path d="M63.6276 9.56397C64.2261 9.55844 64.8246 9.55428 65.4231 9.55175C65.7012 9.55053 65.9793 9.54889 66.2574 9.54618C69.3356 9.51694 71.9709 9.98656 74.2575 12.2079C76.0466 14.0057 76.8515 16.4967 76.8731 18.9947C76.8583 21.1481 76.3488 23.3146 75.0343 25.0542C74.9763 25.1324 74.9183 25.2105 74.8585 25.291C73.329 27.242 70.7897 28.4167 68.3637 28.7299C65.5944 29.0488 63.1688 28.4229 60.6432 27.361C58.2954 26.2804 58.2954 26.2804 55.81 26.3615C55.0255 26.7304 54.5109 27.257 54.1974 28.0717C53.9814 28.8163 54.1022 29.4712 54.4235 30.1652C54.5014 30.282 54.5014 30.282 54.5809 30.4011C54.5697 30.6688 54.5508 30.8189 54.3695 31.0203C54.1258 31.1388 53.9837 31.1526 53.7155 31.1088C53.2861 30.7894 53.1418 30.3813 53.0463 29.875C52.9129 28.8098 53.223 27.8912 53.8234 27.0209C54.4592 26.209 55.3903 25.8223 56.3902 25.6833C58.2164 25.5433 59.9279 26.3669 61.5773 27.0397C63.5481 27.8433 65.7261 28.3027 67.7969 27.5704C67.8471 27.5531 67.8974 27.5359 67.9491 27.5181C69.9044 26.8357 71.4315 25.4022 72.3596 23.5602C73.6253 20.8687 73.7914 17.8468 72.8287 15.0227C72.7352 14.7707 72.6301 14.5256 72.517 14.2818C72.4918 14.2276 72.4667 14.1733 72.4408 14.1174C71.6848 12.5244 70.5955 11.1964 68.9769 10.4289C68.5718 10.2885 68.1965 10.2414 67.7724 10.2225C67.7161 10.2195 67.6599 10.2164 67.602 10.2133C67.4047 10.2029 67.2079 10.193 67.0103 10.193C67.0106 10.2963 67.011 10.3996 67.0113 10.5061C67.0145 11.4824 67.0169 12.4587 67.0184 13.4351C67.0192 13.937 67.0203 14.4388 67.0221 14.9407C67.0239 15.4255 67.0248 15.9104 67.0252 16.3953C67.0255 16.5797 67.026 16.7642 67.0269 16.9486C67.0281 17.2081 67.0282 17.4676 67.0281 17.7271C67.0287 17.8023 67.0293 17.8776 67.0298 17.9552C67.0274 18.7618 67.0007 19.5494 66.4138 20.149C65.9639 20.5447 65.4744 20.6309 64.8863 20.6509C64.418 20.6162 64.009 20.5447 63.6276 20.2578C63.5792 20.0617 63.5792 20.0617 63.5803 19.8234C63.5797 19.7331 63.5792 19.6428 63.5786 19.5498C63.5801 19.4506 63.5815 19.3515 63.5829 19.2493C63.583 19.1439 63.583 19.0385 63.5828 18.9331C63.5826 18.6469 63.585 18.3607 63.5877 18.0744C63.5902 17.7754 63.5904 17.4763 63.5909 17.1772C63.5921 16.6108 63.5953 16.0444 63.5993 15.4779C63.6037 14.8331 63.6058 14.1883 63.6078 13.5435C63.6119 12.217 63.6188 10.8905 63.6276 9.56397Z" fill="#D1B54D"/>
<path d="M90.375 57.8438C91.7249 57.8438 93.0749 57.8438 94.4657 57.8438C94.4657 65.3168 94.4657 72.7899 94.4657 80.4894C93.1158 80.4894 91.7658 80.4894 90.375 80.4894C90.375 73.0163 90.375 65.5433 90.375 57.8438Z" fill="#004A25"/>
<path d="M92.1791 44.5547C92.3616 44.8282 92.3726 45.044 92.4004 45.3607C92.5538 46.7797 93.1394 48.0406 94.2598 48.9586C94.4533 49.0989 94.6495 49.2271 94.8538 49.3512C94.9124 49.3874 94.971 49.4237 95.0314 49.4611C95.8932 49.9429 96.9473 50.0999 97.9218 50.1375C97.9218 50.1634 97.9218 50.1894 97.9218 50.2161C97.8783 50.2208 97.8349 50.2255 97.7901 50.2303C96.1505 50.4146 94.6012 50.795 93.5038 52.133C92.7908 53.1484 92.4069 54.2367 92.358 55.4813C92.3364 55.6416 92.3364 55.6416 92.1791 55.7989C92.1714 55.7086 92.1637 55.6183 92.1558 55.5252C92.0198 54.0619 91.6479 52.6646 90.5271 51.6315C89.3649 50.6891 88.054 50.3602 86.5938 50.2161C86.5938 50.1902 86.5938 50.1642 86.5938 50.1375C86.6841 50.1298 86.7745 50.1221 86.8675 50.1141C88.4889 49.9637 89.8598 49.4971 90.9785 48.2559C91.831 47.1946 92.1334 45.8877 92.1791 44.5547Z" fill="#004A25"/>
<path d="M74.0078 88.7461C74.3872 88.8409 74.4656 88.9897 74.6608 89.3008C74.7079 89.3735 74.7079 89.3735 74.756 89.4476C74.8566 89.6031 74.9558 89.7594 75.0551 89.9157C75.1209 90.018 75.1868 90.1201 75.2528 90.2223C75.4988 90.6038 75.7437 90.9859 75.982 91.3723C76.0309 91.4513 76.0799 91.5304 76.1303 91.6118C76.1727 91.6814 76.2151 91.7509 76.2588 91.8226C76.2948 91.8712 76.3308 91.9198 76.3678 91.97C76.4197 91.97 76.4717 91.97 76.5252 91.97C76.6436 91.797 76.7523 91.624 76.8595 91.4441C77.1932 90.8968 77.5406 90.3601 77.8969 89.8273C77.9443 89.7561 77.9918 89.685 78.0406 89.6117C78.2933 89.2344 78.2933 89.2344 78.4132 89.0606C78.4716 88.972 78.4716 88.972 78.5312 88.8816C78.5896 88.8145 78.5896 88.8145 78.6492 88.7461C78.727 88.7461 78.8049 88.7461 78.8852 88.7461C78.8852 90.4068 78.8852 92.0675 78.8852 93.7785C78.5736 93.7785 78.2621 93.7785 77.9412 93.7785C77.9152 93.0519 77.8892 92.3254 77.8625 91.5768C77.4812 92.1872 77.4812 92.1872 77.1 92.7977C77.0525 92.8737 77.0049 92.9497 76.956 93.0281C76.9074 93.1059 76.8588 93.1837 76.8087 93.2639C76.7162 93.4105 76.6213 93.5556 76.5252 93.6998C76.2239 93.5994 76.1908 93.4955 76.0307 93.2262C75.9825 93.1459 75.9343 93.0656 75.8846 92.9829C75.8348 92.8984 75.7849 92.8139 75.7336 92.7268C75.6343 92.5607 75.5351 92.3946 75.4358 92.2286C75.392 92.1545 75.3482 92.0805 75.303 92.0042C75.2159 91.8594 75.1242 91.7174 75.0305 91.5768C75.0045 92.3033 74.9786 93.0299 74.9518 93.7785C74.6403 93.7785 74.3288 93.7785 74.0078 93.7785C74.0078 92.1178 74.0078 90.4571 74.0078 88.7461Z" fill="#004A25"/>
<path d="M21.3004 89.2961C21.4457 89.4294 21.4457 89.4294 21.5364 89.532C21.4314 89.8146 21.3035 90.0632 21.143 90.3183C20.9402 90.221 20.7466 90.1133 20.553 89.9989C20.1679 89.7795 19.861 89.7306 19.4124 89.7679C18.9272 89.9236 18.593 90.2125 18.311 90.6329C18.1666 91.0658 18.1424 91.5715 18.3037 92.0031C18.5511 92.4239 18.8665 92.6789 19.3337 92.8345C19.839 92.8758 20.2287 92.8707 20.671 92.5986C20.723 92.5986 20.7749 92.5986 20.8284 92.5986C20.8625 92.5111 20.8625 92.5111 20.8972 92.4217C20.9711 92.2413 21.0558 92.0653 21.143 91.891C20.6498 91.891 20.1566 91.891 19.6484 91.891C19.6484 91.6055 19.6484 91.3201 19.6484 91.026C20.4531 91.026 21.2579 91.026 22.0871 91.026C22.0871 91.9088 22.067 92.6077 21.4454 93.267C20.8112 93.7828 20.1284 93.9127 19.3337 93.8567C18.6555 93.7468 18.1287 93.4269 17.6955 92.8938C17.2256 92.2194 17.1378 91.6041 17.2097 90.7901C17.3791 90.0878 17.7635 89.5028 18.37 89.1094C19.3916 88.5484 20.3312 88.7034 21.3004 89.2961Z" fill="#004A25"/>
<path d="M28.3937 89.2601C29.0047 89.7601 29.3412 90.3321 29.4209 91.1169C29.4539 91.8966 29.1868 92.5335 28.6761 93.1149C28.0696 93.6521 27.4601 93.9003 26.6427 93.8812C25.8151 93.7933 25.2855 93.3873 24.7378 92.7954C24.3179 92.1736 24.1978 91.5153 24.3359 90.7861C24.5229 90.0637 24.857 89.537 25.4741 89.105C26.4179 88.5899 27.5169 88.6357 28.3937 89.2601ZM25.4851 90.4196C25.2147 90.81 25.173 91.1905 25.2344 91.6553C25.4061 92.2205 25.7855 92.5743 26.2866 92.8642C26.7921 92.9846 27.2274 92.9611 27.6844 92.7039C28.0423 92.4464 28.3563 92.0897 28.4597 91.6553C28.523 91.1422 28.449 90.7417 28.1451 90.3186C27.7573 89.8954 27.3923 89.7156 26.8176 89.66C26.2396 89.6788 25.8314 89.9748 25.4851 90.4196Z" fill="#004A25"/>
<path d="M85.5223 89.3294C86.08 89.8567 86.368 90.5309 86.3956 91.2862C86.3751 92.024 86.167 92.6333 85.6523 93.1709C85.0804 93.665 84.4087 93.8952 83.6561 93.8758C82.8808 93.8028 82.3534 93.4748 81.8182 92.9276C81.3148 92.2148 81.243 91.5658 81.3265 90.7112C81.4526 90.1438 81.7447 89.668 82.1919 89.2959C83.2647 88.6352 84.4833 88.5398 85.5223 89.3294ZM82.595 90.2198C82.287 90.6906 82.134 91.0751 82.2257 91.6416C82.3574 92.142 82.6438 92.4605 83.0572 92.7556C83.4223 92.9686 83.8265 92.9618 84.2372 92.9129C84.7635 92.7663 85.0653 92.4296 85.3385 91.9693C85.4865 91.5258 85.4786 91.0429 85.3238 90.6031C85.0164 90.1581 84.6693 89.8665 84.1585 89.689C83.5406 89.6106 83.0459 89.7887 82.595 90.2198Z" fill="#004A25"/>
<path d="M37.1953 88.8242C39.7203 88.8242 39.7203 88.8242 40.4993 89.4533C41.0821 90.06 41.2148 90.7519 41.2073 91.5763C41.0998 92.3332 40.8477 92.8731 40.2526 93.3596C39.3552 93.9952 38.25 93.778 37.1953 93.778C37.1953 92.1432 37.1953 90.5085 37.1953 88.8242ZM38.1393 89.7678C38.1393 90.7798 38.1393 91.7917 38.1393 92.8344C39.0504 92.8851 39.0504 92.8851 39.7913 92.5199C40.1821 92.0979 40.2936 91.702 40.2851 91.134C40.2355 90.7092 40.0357 90.3732 39.7176 90.0921C39.1519 89.6998 38.8917 89.7678 38.1393 89.7678Z" fill="#004A25"/>
<path d="M88.7969 88.7461C89.0912 88.8932 89.2395 89.0119 89.4671 89.2406C89.5346 89.3082 89.6021 89.3758 89.6716 89.4455C89.7415 89.5163 89.8114 89.5872 89.8835 89.6602C89.9525 89.7292 90.0215 89.7982 90.0926 89.8693C90.4379 90.2168 90.7744 90.5672 91.0895 90.9423C91.3115 91.1896 91.5512 91.4205 91.7862 91.6554C91.8122 90.7213 91.8381 89.7872 91.8649 88.8247C92.1764 88.8247 92.4879 88.8247 92.8089 88.8247C92.8089 90.4854 92.8089 92.1461 92.8089 93.8571C92.4972 93.7792 92.4404 93.7541 92.2336 93.5377C92.1611 93.4621 92.1611 93.4621 92.0871 93.385C91.9575 93.2432 91.8321 93.0991 91.7076 92.9528C91.3731 92.5636 91.0053 92.2075 90.6391 91.8485C90.5899 91.8 90.5407 91.7515 90.4901 91.7015C90.4462 91.6586 90.4023 91.6156 90.3571 91.5714C90.1681 91.3724 89.9953 91.1586 89.8195 90.9478C89.7936 91.8819 89.7676 92.816 89.7409 93.7785C89.4294 93.7785 89.1178 93.7785 88.7969 93.7785C88.7969 92.1178 88.7969 90.4571 88.7969 88.7461Z" fill="#004A25"/>
<path d="M49.4624 88.8027C49.7715 88.9644 49.992 89.156 50.1716 89.453C50.2306 89.7527 50.2306 89.7527 50.2503 90.0034C49.9647 90.0293 49.6792 90.0553 49.385 90.082C49.333 89.9523 49.2811 89.8225 49.2276 89.6888C49.0199 89.6888 48.8123 89.6888 48.5983 89.6888C48.5479 90.2425 48.6705 90.5742 48.9916 91.0256C49.155 91.2187 49.3225 91.405 49.4971 91.588C49.621 91.7332 49.621 91.7332 49.621 91.8905C49.6988 91.9165 49.7767 91.9424 49.857 91.9691C49.9089 91.7356 49.9608 91.5021 50.0143 91.2615C50.2999 91.2615 50.5854 91.2615 50.8796 91.2615C50.8957 91.7661 50.8467 92.1874 50.7223 92.6768C51.0728 92.8325 51.0728 92.8325 51.4303 92.9913C51.4303 93.2508 51.4303 93.5103 51.4303 93.7776C50.7787 93.7283 50.7787 93.7283 50.4666 93.5663C50.2599 93.4391 50.2599 93.4391 50.0635 93.5123C49.9612 93.5658 49.9612 93.5658 49.857 93.6204C49.2574 93.889 48.6692 93.9689 48.028 93.7776C47.6569 93.6186 47.409 93.3172 47.1823 92.9913C47.0379 92.5585 47.0076 92.0454 47.1832 91.6184C47.3142 91.4068 47.4418 91.2295 47.6325 91.0683C47.7517 90.9534 47.7517 90.9534 47.7188 90.794C47.7008 90.7374 47.6827 90.6809 47.6641 90.6226C47.5358 90.1298 47.5591 89.7334 47.7772 89.2711C48.2159 88.7877 48.8294 88.5698 49.4624 88.8027ZM48.0771 91.7775C47.9256 92.0459 47.9263 92.2158 47.969 92.5196C48.1717 92.802 48.3011 92.8963 48.6376 92.9864C48.9111 92.9913 49.0656 92.958 49.3063 92.8341C49.1979 92.5882 49.0732 92.4285 48.8785 92.2443C48.7211 92.0925 48.5867 91.9535 48.4557 91.7775C48.4095 91.7167 48.4095 91.7167 48.3623 91.6546C48.1943 91.6364 48.1943 91.6364 48.0771 91.7775Z" fill="#004A25"/>
<path d="M95.4844 88.8242C98.0176 88.8242 98.0176 88.8242 98.7226 89.4462C99.2773 90.0177 99.4239 90.5517 99.4521 91.3355C99.4374 91.9525 99.2998 92.5168 98.931 93.0211C97.9431 93.9427 96.8314 93.778 95.4844 93.778C95.4844 92.1432 95.4844 90.5085 95.4844 88.8242ZM96.3497 89.7678C96.3497 90.7798 96.3497 91.7917 96.3497 92.8344C97.346 92.8908 97.346 92.8908 98.0804 92.4412C98.4867 92.0038 98.5059 91.6292 98.5008 91.0498C98.4617 90.6743 98.3377 90.4336 98.0804 90.1609C97.499 89.6985 97.1378 89.7678 96.3497 89.7678Z" fill="#004A25"/>
<path d="M57.4922 88.8242C60.0502 88.8242 60.0502 88.8242 60.8552 89.5368C61.3714 90.0965 61.4724 90.7704 61.4627 91.5091C61.4336 92.1696 61.2253 92.7074 60.7722 93.191C59.868 93.9719 58.5994 93.778 57.4922 93.778C57.4922 92.1432 57.4922 90.5085 57.4922 88.8242ZM58.3575 89.7678C58.3575 90.7798 58.3575 91.7917 58.3575 92.8344C59.3305 92.8999 59.3305 92.8999 60.0747 92.4772C60.4221 92.0755 60.5751 91.7418 60.5504 91.2062C60.4831 90.6943 60.3438 90.327 59.9309 90.0037C59.4274 89.6903 58.9632 89.7678 58.3575 89.7678Z" fill="#004A25"/>
<path d="M69.2886 88.7461C69.3665 88.7461 69.4444 88.7461 69.5246 88.7461C70.1349 90.0379 70.7404 91.3316 71.329 92.6334C71.3533 92.6869 71.3775 92.7404 71.4025 92.7955C71.4707 92.9461 71.5387 93.0967 71.6065 93.2474C71.6452 93.3331 71.6838 93.4188 71.7236 93.5071C71.806 93.6998 71.806 93.6998 71.806 93.7785C71.4685 93.7785 71.131 93.7785 70.7833 93.7785C70.6794 93.5709 70.5756 93.3633 70.4686 93.1494C69.7677 93.1494 69.0668 93.1494 68.3446 93.1494C68.2408 93.357 68.1369 93.5646 68.0299 93.7785C67.7184 93.7785 67.4069 93.7785 67.0859 93.7785C67.1415 93.5006 67.1786 93.3273 67.2923 93.0841C67.3184 93.0278 67.3444 92.9715 67.3713 92.9134C67.3996 92.8533 67.428 92.7933 67.4571 92.7314C67.5013 92.6364 67.5013 92.6364 67.5464 92.5394C67.6416 92.3347 67.7375 92.1302 67.8333 91.9257C67.9306 91.7167 68.0279 91.5077 68.1251 91.2986C68.1889 91.1614 68.2527 91.0243 68.3166 90.8871C68.5558 90.3733 68.7915 89.858 69.0231 89.3407C69.0514 89.2777 69.0796 89.2146 69.1087 89.1497C69.1688 89.0152 69.2287 88.8807 69.2886 88.7461ZM69.3673 90.7119C69.2619 90.9443 69.1572 91.177 69.0526 91.4097C69.0226 91.4759 68.9926 91.5421 68.9617 91.6103C68.9333 91.6736 68.9049 91.737 68.8756 91.8022C68.8492 91.8607 68.8229 91.9192 68.7957 91.9794C68.7284 92.1252 68.7284 92.1252 68.7379 92.2845C69.1793 92.2845 69.6206 92.2845 70.0753 92.2845C70.0196 92.0064 69.9841 91.8365 69.8685 91.5949C69.8439 91.543 69.8193 91.491 69.794 91.4375C69.7684 91.3845 69.7427 91.3316 69.7164 91.277C69.6905 91.2225 69.6645 91.1681 69.6379 91.1119C69.5743 90.9784 69.5102 90.8451 69.4459 90.7119C69.42 90.7119 69.394 90.7119 69.3673 90.7119Z" fill="#004A25"/>
<path d="M104.56 89.107C104.732 89.2576 104.837 89.3973 104.921 89.6101C104.816 89.9247 104.646 89.9906 104.371 90.1606C104.196 90.0794 104.06 90.0075 103.918 89.8755C103.657 89.7158 103.411 89.7093 103.112 89.7674C102.915 89.9116 102.915 89.9116 102.797 90.0819C102.824 90.2725 102.824 90.2725 102.955 90.4751C103.183 90.6156 103.43 90.7119 103.677 90.8142C104.298 91.087 104.765 91.3431 105.079 91.9691C105.122 92.4372 105.121 92.8319 104.843 93.2272C104.401 93.7016 103.969 93.8566 103.323 93.8857C102.799 93.8735 102.338 93.7521 101.932 93.4093C101.698 93.1585 101.698 93.1585 101.617 92.9913C101.63 92.8279 101.63 92.8279 101.696 92.6767C101.937 92.4998 101.937 92.4998 102.168 92.3622C102.367 92.4542 102.517 92.5471 102.689 92.6866C103.045 92.8843 103.342 92.9109 103.741 92.834C104.001 92.6798 104.001 92.6798 104.135 92.4409C104.161 92.2276 104.161 92.2276 104.056 92.0477C103.926 91.9917 103.795 91.9403 103.663 91.8904C103.438 91.7862 103.219 91.674 102.999 91.5612C102.941 91.5327 102.883 91.5043 102.823 91.475C102.415 91.2643 102.099 91.0269 101.853 90.6323C101.754 90.243 101.795 89.8262 101.971 89.4627C102.21 89.11 102.58 88.8812 102.988 88.7735C103.562 88.6934 104.083 88.7686 104.56 89.107Z" fill="#004A25"/>
<path d="M31.8438 88.8242C32.1293 88.8242 32.4149 88.8242 32.7091 88.8242C32.7091 90.1476 32.7091 91.4709 32.7091 92.8344C33.41 92.8344 34.1109 92.8344 34.8331 92.8344C34.8331 93.1458 34.8331 93.4571 34.8331 93.778C33.8466 93.778 32.8601 93.778 31.8438 93.778C31.8438 92.1432 31.8438 90.5085 31.8438 88.8242Z" fill="#004A25"/>
<path d="M61.1044 21.3594C61.1303 21.3594 61.1563 21.3594 61.183 21.3594C61.1955 21.4315 61.208 21.5037 61.2208 21.5781C61.3715 22.37 61.5629 22.9459 62.2045 23.4575C62.6908 23.775 63.2056 23.9117 63.779 23.9542C63.5635 24.072 63.3818 24.133 63.1399 24.1704C62.498 24.3078 61.9594 24.6513 61.5905 25.196C61.3393 25.6658 61.2401 26.1811 61.183 26.7063C61.1571 26.7063 61.1311 26.7063 61.1044 26.7063C61.0928 26.6359 61.0812 26.5656 61.0693 26.4931C60.9204 25.6908 60.7332 25.0253 60.0374 24.5439C59.6526 24.3081 59.2825 24.1766 58.8378 24.1016C58.761 24.0884 58.6842 24.0753 58.6052 24.0617C58.5183 24.0474 58.5183 24.0474 58.4297 24.0328C58.4297 24.0069 58.4297 23.9809 58.4297 23.9542C58.4887 23.9474 58.5477 23.9406 58.6085 23.9336C59.4324 23.8206 60.0724 23.6002 60.601 22.9341C60.935 22.4502 61.0168 21.9286 61.1044 21.3594Z" fill="#D1B54D"/>
<path d="M63.8594 88.8242C64.1709 88.8242 64.4824 88.8242 64.8034 88.8242C64.8034 90.459 64.8034 92.0937 64.8034 93.778C64.4919 93.778 64.1803 93.778 63.8594 93.778C63.8594 92.1432 63.8594 90.5085 63.8594 88.8242Z" fill="#004A25"/>
</g>
<defs>
<clipPath id="clip0_101_3422">
<rect width="121.855" height="93.0988" fill="white" transform="translate(0.21875 0.757812)"/>
</clipPath>
</defs>
</svg>
